<svg width="253" height="180" viewBox="0 0 253 180" fill="none" xmlns="http://www.w3.org/2000/svg">
<path d="M1.90954 2.14575C1.90954 8.95868 7.32472 23.3197 12.0402 28.0352" stroke-width="3" stroke-linecap="round"/>
<path d="M17.6683 38.1659C18.8455 47.5828 28.7896 56.3261 33.4271 64.0553" stroke-width="3" stroke-linecap="round"/>
<path d="M44.6834 75.3116C40.617 70.7369 43.4518 77.4654 45.809 78.9386C49.6458 81.3366 52.9801 86.0957 57.0653 88.8191" stroke-width="3" stroke-linecap="round"/>
<path d="M70.5729 100.075C70.7331 101.357 72.8946 101.623 73.9497 102.327" stroke-width="3" stroke-linecap="round"/>
<path d="M111.095 131.593C109.202 130.078 105.915 129.619 104.342 127.653C102.951 125.915 108.299 128.812 109.094 129.342C118.708 135.751 128.144 140.278 139.236 143.975" stroke-width="3" stroke-linecap="round"/>
<path d="M162.874 150.729C166.61 151.196 170.328 154.106 174.631 154.106C178.674 154.106 186.531 155.803 189.889 157.482" stroke-width="3" stroke-linecap="round"/>
<path d="M204.523 158.608C204.867 161.367 238.649 160.859 241.668 160.859" stroke-width="3" stroke-linecap="round"/>
<path d="M212.402 131.593C223.516 141.472 237.85 150.155 250.673 157.482" stroke-width="3" stroke-linecap="round"/>
<path d="M248.422 165.362C248.721 165.405 239.211 169.183 237.166 169.864C227.88 172.959 218.249 174.669 209.025 177.744" stroke-width="3" stroke-linecap="round"/>
</svg>
