<svg width="340" height="216" viewBox="0 0 340 216" xmlns="http://www.w3.org/2000/svg">
<path d="M338.457 1.53217C338.457 24.6252 320.93 55.1454 300.015 65.6028" stroke-width="3" stroke-linecap="round"/>
<path d="M283.706 73.7572C283.273 77.2199 274.811 82.3628 272.057 83.9826C266.896 87.0187 262.366 91.9554 256.913 94.9846C249.401 99.1578 242.243 103.994 235.038 108.705C228.142 113.214 219.574 113.406 212.646 118.024" stroke-width="3" stroke-linecap="round"/>
<path d="M169.544 135.498C167.303 135.778 164.106 139.555 161.972 140.74C158.701 142.557 155.614 144.197 152.653 146.5C147.478 150.525 138.217 152.327 132.266 155.302" stroke-width="3" stroke-linecap="round"/>
<path d="M68.1959 175.105C73.6509 170.256 82.6078 172.017 88.582 168.698C94.8307 165.227 102.777 165.253 108.968 161.126" stroke-width="3" stroke-linecap="round"/>
<path d="M23.9289 183.26C24.1762 181.282 28.2182 182.095 29.7535 182.095" stroke-width="3" stroke-linecap="round"/>
<path d="M62.3713 213.548C59.776 213.259 56.5146 209.54 54.1521 208.241C50.2297 206.083 46.0268 203.501 42.5676 200.734" stroke-width="3" stroke-linecap="round"/>
<path d="M33.2483 197.239C28.0287 197.239 20.5414 191.468 15.7745 189.084" stroke-width="3" stroke-linecap="round"/>
<path d="M1.79541 185.59C2.29871 181.06 13.6127 177.184 16.9394 175.105" stroke-width="3" stroke-linecap="round"/>
<path d="M28.5886 168.116C27.3797 168.116 25.2095 169.294 26.9059 167.598C28.7023 165.802 30.6813 164.367 32.3422 162.291C37.8034 155.465 45.6624 148.712 51.887 142.487" stroke-width="3" stroke-linecap="round"/>
</svg>
